<svg width="40" height="40" viewBox="0 0 24 24" fill="none" xmlns="http://www.w3.org/2000/svg">
<rect x="0.818514" y="0.469881" width="22.7028" height="22.7028" rx="11.3514" fill="#9A55FF"/>
<rect x="0.818514" y="0.469881" width="22.7028" height="22.7028" rx="11.3514" stroke="#9A55FF" stroke-width="0.61359"/>
<g clip-path="url(#clip0_136_4318)">
<rect width="9.81744" height="9.81744" transform="translate(7.26074 6.9126)" fill="white" fill-opacity="0.01"/>
<g clip-path="url(#clip1_136_4318)">
<path d="M16.4656 15.5018C16.4656 15.5018 17.0792 15.5018 17.0792 14.8882C17.0792 14.2746 16.4656 12.4338 14.0112 12.4338C11.5568 12.4338 10.9433 14.2746 10.9433 14.8882C10.9433 15.5018 11.5568 15.5018 11.5568 15.5018H16.4656ZM11.5703 14.8882C11.5658 14.8875 11.5613 14.8867 11.5568 14.8857C11.5575 14.7237 11.6593 14.2537 12.0232 13.8303C12.3619 13.4333 12.9571 13.0474 14.0112 13.0474C15.0647 13.0474 15.6599 13.434 15.9992 13.8303C16.3631 14.2537 16.4643 14.7243 16.4656 14.8857L16.4607 14.8869C16.4578 14.8874 16.4549 14.8878 16.4521 14.8882H11.5703ZM14.0112 11.2066C14.3367 11.2066 14.6488 11.0773 14.879 10.8472C15.1091 10.617 15.2384 10.3049 15.2384 9.97944C15.2384 9.65397 15.1091 9.34184 14.879 9.11169C14.6488 8.88155 14.3367 8.75226 14.0112 8.75226C13.6857 8.75226 13.3736 8.88155 13.1435 9.11169C12.9133 9.34184 12.784 9.65397 12.784 9.97944C12.784 10.3049 12.9133 10.617 13.1435 10.8472C13.3736 11.0773 13.6857 11.2066 14.0112 11.2066ZM15.852 9.97944C15.852 10.2212 15.8044 10.4605 15.7119 10.6839C15.6193 10.9072 15.4838 11.1101 15.3128 11.2811C15.1419 11.452 14.939 11.5876 14.7156 11.6801C14.4923 11.7726 14.2529 11.8202 14.0112 11.8202C13.7695 11.8202 13.5301 11.7726 13.3068 11.6801C13.0834 11.5876 12.8805 11.452 12.7096 11.2811C12.5387 11.1101 12.4031 10.9072 12.3106 10.6839C12.2181 10.4605 12.1704 10.2212 12.1704 9.97944C12.1704 9.49124 12.3644 9.02303 12.7096 8.67782C13.0548 8.33261 13.523 8.13867 14.0112 8.13867C14.4994 8.13867 14.9676 8.33261 15.3128 8.67782C15.658 9.02303 15.852 9.49124 15.852 9.97944ZM11.5176 12.6056C11.2721 12.5283 11.0191 12.4775 10.7629 12.454C10.6189 12.4404 10.4743 12.4336 10.3297 12.4338C7.87531 12.4338 7.26172 14.2746 7.26172 14.8882C7.26172 15.2974 7.46604 15.5018 7.87531 15.5018H10.4622C10.3712 15.3102 10.3259 15.1002 10.3297 14.8882C10.3297 14.2684 10.561 13.6352 10.9985 13.1063C11.1476 12.9259 11.3212 12.7572 11.5176 12.6056ZM10.2806 13.0474C9.91743 13.593 9.72126 14.2327 9.71608 14.8882H7.87531C7.87531 14.7286 7.97594 14.2562 8.34164 13.8303C8.67604 13.4401 9.25711 13.0597 10.2806 13.048V13.0474ZM8.1821 10.2862C8.1821 9.79803 8.37604 9.32983 8.72125 8.98462C9.06646 8.6394 9.53467 8.44547 10.0229 8.44547C10.5111 8.44547 10.9793 8.6394 11.3245 8.98462C11.6697 9.32983 11.8636 9.79803 11.8636 10.2862C11.8636 10.7744 11.6697 11.2426 11.3245 11.5879C10.9793 11.9331 10.5111 12.127 10.0229 12.127C9.53467 12.127 9.06646 11.9331 8.72125 11.5879C8.37604 11.2426 8.1821 10.7744 8.1821 10.2862ZM10.0229 9.05906C9.6974 9.05906 9.38527 9.18835 9.15513 9.41849C8.92499 9.64863 8.79569 9.96077 8.79569 10.2862C8.79569 10.6117 8.92499 10.9238 9.15513 11.154C9.38527 11.3841 9.6974 11.5134 10.0229 11.5134C10.3483 11.5134 10.6605 11.3841 10.8906 11.154C11.1208 10.9238 11.2501 10.6117 11.2501 10.2862C11.2501 9.96077 11.1208 9.64863 10.8906 9.41849C10.6605 9.18835 10.3483 9.05906 10.0229 9.05906Z" fill="white"/>
</g>
</g>
<defs>
<clipPath id="clip0_136_4318">
<rect width="9.81744" height="9.81744" fill="white" transform="translate(7.26074 6.9126)"/>
</clipPath>
<clipPath id="clip1_136_4318">
<rect width="9.81744" height="9.81744" fill="white" transform="translate(7.26074 6.9126)"/>
</clipPath>
</defs>
</svg>
