<svg width="40" height="40" viewBox="0 0 25 24" fill="none" xmlns="http://www.w3.org/2000/svg">
<rect x="1.01676" y="0.469881" width="22.7028" height="22.7028" rx="11.3514" fill="#9A55FF"/>
<rect x="1.01676" y="0.469881" width="22.7028" height="22.7028" rx="11.3514" stroke="#9A55FF" stroke-width="0.61359"/>
<g clip-path="url(#clip0_136_4290)">
<rect width="9.81744" height="9.81744" transform="translate(7.45898 6.9126)" fill="white" fill-opacity="0.01"/>
<g clip-path="url(#clip1_136_4290)">
<path fill-rule="evenodd" clip-rule="evenodd" d="M7.45996 6.91162H8.07355V16.1155H17.2774V16.7291H7.45996V6.91162ZM13.5959 13.9679C13.5959 14.0493 13.6282 14.1273 13.6857 14.1848C13.7433 14.2424 13.8213 14.2747 13.9027 14.2747H16.357C16.4384 14.2747 16.5164 14.2424 16.574 14.1848C16.6315 14.1273 16.6638 14.0493 16.6638 13.9679V11.5135C16.6638 11.4322 16.6315 11.3541 16.574 11.2966C16.5164 11.2391 16.4384 11.2068 16.357 11.2068C16.2756 11.2068 16.1976 11.2391 16.1401 11.2966C16.0825 11.3541 16.0502 11.4322 16.0502 11.5135V13.1089L13.8333 10.3987C13.8062 10.3655 13.7724 10.3385 13.7342 10.3192C13.6959 10.2999 13.6541 10.2888 13.6113 10.2867C13.5686 10.2845 13.5258 10.2914 13.4858 10.3067C13.4459 10.3221 13.4096 10.3457 13.3793 10.3759L11.7919 11.9633L9.54862 8.87879C9.49955 8.81639 9.4282 8.77544 9.34956 8.76455C9.27093 8.75365 9.19113 8.77367 9.12694 8.82038C9.06276 8.86709 9.01917 8.93686 9.00535 9.01504C8.99154 9.09321 9.00856 9.1737 9.05284 9.23958L11.5072 12.6143C11.5333 12.6502 11.5668 12.68 11.6055 12.7017C11.6441 12.7234 11.6871 12.7364 11.7313 12.7399C11.7755 12.7434 11.8199 12.7373 11.8615 12.722C11.9031 12.7066 11.9409 12.6825 11.9723 12.6511L13.5732 11.0497L15.7097 13.6611H13.9027C13.8213 13.6611 13.7433 13.6934 13.6857 13.751C13.6282 13.8085 13.5959 13.8865 13.5959 13.9679Z" fill="white"/>
</g>
</g>
<defs>
<clipPath id="clip0_136_4290">
<rect width="9.81744" height="9.81744" fill="white" transform="translate(7.45898 6.9126)"/>
</clipPath>
<clipPath id="clip1_136_4290">
<rect width="9.81744" height="9.81744" fill="white" transform="translate(7.45898 6.9126)"/>
</clipPath>
</defs>
</svg>
