<svg width="40" height="40" viewBox="0 0 29 29" fill="none" xmlns="http://www.w3.org/2000/svg">
<rect x="0.375" y="0.375" width="27.75" height="27.75" rx="13.875" fill="#9A55FF"/>
<rect x="0.375" y="0.375" width="27.75" height="27.75" rx="13.875" stroke="#9A55FF" stroke-width="0.75"/>
<g clip-path="url(#clip0_51_24884)">
<rect width="12" height="12" transform="translate(8.25 8.25)" fill="white" fill-opacity="0.01"/>
<g clip-path="url(#clip1_51_24884)">
<path d="M18.75 18.75V11.625L15.375 8.25H11.25C10.8522 8.25 10.4706 8.40804 10.1893 8.68934C9.90804 8.97064 9.75 9.35218 9.75 9.75V18.75C9.75 19.1478 9.90804 19.5294 10.1893 19.8107C10.4706 20.092 10.8522 20.25 11.25 20.25H17.25C17.6478 20.25 18.0294 20.092 18.3107 19.8107C18.592 19.5294 18.75 19.1478 18.75 18.75ZM15.375 10.5C15.375 10.7984 15.4935 11.0845 15.7045 11.2955C15.9155 11.5065 16.2016 11.625 16.5 11.625H18V15H10.5V9.75C10.5 9.55109 10.579 9.36032 10.7197 9.21967C10.8603 9.07902 11.0511 9 11.25 9H15.375V10.5ZM10.5 17.25V15.75H12V17.25H10.5ZM10.5 18H12V19.5H11.25C11.0511 19.5 10.8603 19.421 10.7197 19.2803C10.579 19.1397 10.5 18.9489 10.5 18.75V18ZM12.75 19.5V18H15V19.5H12.75ZM15.75 19.5V18H18V18.75C18 18.9489 17.921 19.1397 17.7803 19.2803C17.6397 19.421 17.4489 19.5 17.25 19.5H15.75ZM18 17.25H15.75V15.75H18V17.25ZM12.75 17.25V15.75H15V17.25H12.75Z" fill="white"/>
</g>
</g>
<defs>
<clipPath id="clip0_51_24884">
<rect width="12" height="12" fill="white" transform="translate(8.25 8.25)"/>
</clipPath>
<clipPath id="clip1_51_24884">
<rect width="12" height="12" fill="white" transform="translate(8.25 8.25)"/>
</clipPath>
</defs>
</svg>
