<svg width="16" height="16" viewBox="0 0 9 9" fill="none" xmlns="http://www.w3.org/2000/svg">
<path fill-rule="evenodd" clip-rule="evenodd" d="M4.57093 2.63525C4.63195 2.63525 4.69048 2.6595 4.73363 2.70265C4.77678 2.7458 4.80102 2.80432 4.80102 2.86535V5.53124L5.78859 4.54321C5.80999 4.52182 5.83539 4.50485 5.86334 4.49327C5.89129 4.48169 5.92125 4.47573 5.9515 4.47573C5.98176 4.47573 6.01172 4.48169 6.03967 4.49327C6.06762 4.50485 6.09302 4.52182 6.11441 4.54321C6.1358 4.56461 6.15277 4.59 6.16435 4.61795C6.17593 4.64591 6.18189 4.67586 6.18189 4.70612C6.18189 4.73637 6.17593 4.76633 6.16435 4.79429C6.15277 4.82224 6.1358 4.84763 6.11441 4.86903L4.73383 6.24961C4.71246 6.27103 4.68707 6.28803 4.65911 6.29963C4.63116 6.31123 4.60119 6.3172 4.57093 6.3172C4.54066 6.3172 4.51069 6.31123 4.48274 6.29963C4.45478 6.28803 4.42939 6.27103 4.40802 6.24961L3.02744 4.86903C3.00605 4.84763 2.98908 4.82224 2.9775 4.79429C2.96592 4.76633 2.95996 4.73637 2.95996 4.70612C2.95996 4.67586 2.96592 4.64591 2.9775 4.61795C2.98908 4.59 3.00605 4.56461 3.02744 4.54321C3.07065 4.50001 3.12925 4.47573 3.19035 4.47573C3.2206 4.47573 3.25056 4.48169 3.27851 4.49327C3.30647 4.50485 3.33186 4.52182 3.35326 4.54321L4.34083 5.53124V2.86535C4.34083 2.80432 4.36507 2.7458 4.40822 2.70265C4.45137 2.6595 4.5099 2.63525 4.57093 2.63525V2.63525Z" fill="#ED4D5C"/>
</svg>
