<svg width="24" height="24" viewBox="0 0 24 24" fill="none" xmlns="http://www.w3.org/2000/svg">
<g clip-path="url(#clip0_91_140096)">
<rect width="24" height="24" fill="white" fill-opacity="0.01"/>
<path d="M14.5059 1.29624L12.0024 0.000244141L9.49886 1.29624L6.71186 1.71924L5.44886 4.23924L3.44336 6.21924L3.90236 9.00024L3.44336 11.7812L5.44886 13.7612L6.71186 16.2812L9.49886 16.7042L12.0024 18.0002L14.5059 16.7042L17.2929 16.2812L18.5559 13.7612L20.5614 11.7812L20.1024 9.00024L20.5614 6.21924L18.5559 4.23924L17.2929 1.71924L14.5059 1.29624ZM16.2999 3.08574L17.3259 5.13324L18.9549 6.74124L18.5829 9.00024L18.9549 11.2592L17.3259 12.8672L16.2999 14.9147L14.0349 15.2582L12.0024 16.3112L9.96986 15.2582L7.70486 14.9147L6.67886 12.8672L5.04986 11.2592L5.42336 9.00024L5.04836 6.74124L6.67886 5.13324L7.70486 3.08574L9.96986 2.74224L12.0024 1.68924L14.0364 2.74224L16.2999 3.08574Z" fill="#9A55FF"/>
<path d="M6.00236 17.6912V24.0002L12.0024 22.5002L18.0024 24.0002V17.6912L14.9754 18.1502L12.0024 19.6892L9.02936 18.1502L6.00236 17.6912Z" fill="#9A55FF"/>
</g>
<defs>
<clipPath id="clip0_91_140096">
<rect width="24" height="24" fill="white"/>
</clipPath>
</defs>
</svg>
