<svg width="30" height="30" viewBox="0 0 30 30" fill="none" xmlns="http://www.w3.org/2000/svg">
<g filter="url(#filter0_d_183_16968)">
<g clip-path="url(#clip0_183_16968)">
<rect x="3.91992" y="2.16498" width="22.41" height="22.41" rx="11.205" fill="white"/>
<path d="M15.8325 18.765H15.2466L15.3931 16.6115C15.3848 16.4981 15.3256 16.4683 15.1002 16.4769L12.7566 16.7461C12.7566 16.7461 13.196 16.2077 13.196 15.9385C13.196 15.6693 10.5596 13.9196 10.5596 13.9196C10.5596 13.9196 11.1455 13.785 11.2919 13.6504C11.4384 13.5158 10.706 12.0353 10.706 12.0353C10.706 12.0353 12.1945 12.5736 12.3172 12.439C12.4399 12.3045 12.6102 11.7661 12.6102 11.7661C12.6102 11.7661 13.7819 12.9774 14.0749 12.9774C14.3678 12.9774 13.489 10.0163 13.489 10.0163C13.489 10.0163 14.2213 10.5547 14.5143 10.5547C14.8072 10.5547 15.5396 8.80499 15.5396 8.80499C15.5396 8.80499 16.2719 10.5547 16.4184 10.5547C16.5649 10.5547 17.5902 10.0163 17.5902 10.0163C17.5902 10.0163 16.8578 12.8428 17.0043 12.9774C17.1507 13.112 18.469 11.7661 18.469 11.7661C18.469 11.7661 18.6155 12.3045 18.7619 12.439C18.9084 12.5736 20.3731 12.0353 20.3731 12.0353C20.3731 12.0353 19.6407 13.5158 19.7872 13.6504C19.9337 13.785 20.5196 13.9196 20.5196 13.9196C20.5196 13.9196 17.8831 15.6693 17.8831 15.9385C17.8831 16.2077 18.176 16.7461 18.176 16.7461L15.979 16.4769C15.8024 16.4304 15.7412 16.4657 15.686 16.6115L15.8325 18.765Z" fill="#F93939"/>
<rect x="23.0098" y="3.82495" width="6.64" height="19.92" fill="#F93939"/>
<rect x="1.42969" y="3.82495" width="5.81" height="19.92" fill="#F93939"/>
</g>
</g>
<defs>
<filter id="filter0_d_183_16968" x="0.599922" y="0.504978" width="29.0502" height="29.05" filterUnits="userSpaceOnUse" color-interpolation-filters="sRGB">
<feFlood flood-opacity="0" result="BackgroundImageFix"/>
<feColorMatrix in="SourceAlpha" type="matrix" values="0 0 0 0 0 0 0 0 0 0 0 0 0 0 0 0 0 0 127 0" result="hardAlpha"/>
<feOffset dy="1.66"/>
<feGaussianBlur stdDeviation="1.66"/>
<feColorMatrix type="matrix" values="0 0 0 0 0 0 0 0 0 0 0 0 0 0 0 0 0 0 0.075 0"/>
<feBlend mode="normal" in2="BackgroundImageFix" result="effect1_dropShadow_183_16968"/>
<feBlend mode="normal" in="SourceGraphic" in2="effect1_dropShadow_183_16968" result="shape"/>
</filter>
<clipPath id="clip0_183_16968">
<rect x="3.91992" y="2.16498" width="22.41" height="22.41" rx="11.205" fill="white"/>
</clipPath>
</defs>
</svg>
