<svg width="30" height="29" viewBox="0 0 30 29" fill="none" xmlns="http://www.w3.org/2000/svg">
<rect x="0.5" width="29" height="29" rx="14.5" fill="#9A55FF"/>
<g clip-path="url(#clip0_1021_11287)">
<path d="M11.4684 22.8126C18.6385 22.8126 22.5608 16.8715 22.5608 11.7285C22.5608 11.5622 22.5608 11.3936 22.5537 11.2273C23.3173 10.6745 23.9764 9.99015 24.5 9.20622C23.7867 9.52073 23.0308 9.72801 22.2568 9.82134C23.0721 9.33404 23.6827 8.5673 23.9751 7.66365C23.2092 8.11743 22.3708 8.43597 21.4968 8.60534C20.9092 7.97956 20.1317 7.56499 19.2846 7.42587C18.4375 7.28674 17.5682 7.43081 16.8113 7.83577C16.0544 8.24072 15.4522 8.88396 15.0979 9.66585C14.7436 10.4477 14.657 11.3246 14.8516 12.1607C13.3016 12.083 11.7852 11.6803 10.4009 10.9788C9.01651 10.2774 7.79506 9.29272 6.81575 8.08878C6.31859 8.94744 6.16687 9.96313 6.39139 10.9296C6.61592 11.8961 7.19985 12.7408 8.02462 13.2924C7.40658 13.2714 6.80212 13.1054 6.26 12.8079V12.8613C6.26107 13.7608 6.57268 14.6324 7.14216 15.3287C7.71165 16.025 8.50408 16.5033 9.3855 16.6827C9.05094 16.7749 8.70533 16.8208 8.35831 16.8193C8.11367 16.82 7.86951 16.7974 7.62919 16.7516C7.87831 17.5259 8.36339 18.2029 9.01648 18.6878C9.66957 19.1727 10.458 19.4411 11.2713 19.4555C9.88966 20.5407 8.18304 21.1292 6.42625 21.1263C6.11669 21.1276 5.80735 21.1098 5.5 21.0729C7.28305 22.2097 9.35379 22.8132 11.4684 22.8126Z" fill="white"/>
</g>
<defs>
<clipPath id="clip0_1021_11287">
<rect width="19" height="19" fill="white" transform="translate(5.5 5)"/>
</clipPath>
</defs>
</svg>
