<svg width="14" height="14" viewBox="0 0 14 14" fill="none" xmlns="http://www.w3.org/2000/svg">
<g clip-path="url(#clip0_1540_11512)">
<rect width="14" height="14" fill="white" fill-opacity="0.01"/>
<g clip-path="url(#clip1_1540_11512)">
<path d="M9.625 1.74927C9.625 1.5172 9.71719 1.29464 9.88128 1.13055C10.0454 0.966455 10.2679 0.874268 10.5 0.874268H12.25C12.4821 0.874268 12.7046 0.966455 12.8687 1.13055C13.0328 1.29464 13.125 1.5172 13.125 1.74927V12.2493H13.5625C13.6785 12.2493 13.7898 12.2954 13.8719 12.3774C13.9539 12.4595 14 12.5707 14 12.6868C14 12.8028 13.9539 12.9141 13.8719 12.9961C13.7898 13.0782 13.6785 13.1243 13.5625 13.1243H0.4375C0.321468 13.1243 0.210188 13.0782 0.128141 12.9961C0.0460936 12.9141 0 12.8028 0 12.6868C0 12.5707 0.0460936 12.4595 0.128141 12.3774C0.210188 12.2954 0.321468 12.2493 0.4375 12.2493H0.875V9.62427C0.875 9.3922 0.967187 9.16964 1.13128 9.00555C1.29538 8.84145 1.51794 8.74927 1.75 8.74927H3.5C3.73206 8.74927 3.95462 8.84145 4.11872 9.00555C4.28281 9.16964 4.375 9.3922 4.375 9.62427V12.2493H5.25V6.12427C5.25 5.8922 5.34219 5.66964 5.50628 5.50555C5.67038 5.34145 5.89294 5.24927 6.125 5.24927H7.875C8.10706 5.24927 8.32962 5.34145 8.49372 5.50555C8.65781 5.66964 8.75 5.8922 8.75 6.12427V12.2493H9.625V1.74927ZM10.5 12.2493H12.25V1.74927H10.5V12.2493ZM7.875 12.2493V6.12427H6.125V12.2493H7.875ZM3.5 12.2493V9.62427H1.75V12.2493H3.5Z" fill="#9A55FF"/>
</g>
</g>
<defs>
<clipPath id="clip0_1540_11512">
<rect width="14" height="14" fill="white"/>
</clipPath>
<clipPath id="clip1_1540_11512">
<rect width="14" height="14" fill="white"/>
</clipPath>
</defs>
</svg>
