<svg width="14" height="14" viewBox="0 0 14 14" fill="none" xmlns="http://www.w3.org/2000/svg">
<g clip-path="url(#clip0_1540_10407)">
<path d="M0 2.18668C0 2.07064 0.0460936 1.95936 0.128141 1.87732C0.210188 1.79527 0.321468 1.74918 0.4375 1.74918H1.75C1.84759 1.7492 1.94237 1.78186 2.01926 1.84195C2.09616 1.90204 2.15076 1.98611 2.17437 2.0808L2.52875 3.49918H12.6875C12.754 3.49919 12.8195 3.51435 12.8793 3.5435C12.939 3.57264 12.9913 3.61501 13.0322 3.66739C13.0731 3.71976 13.1015 3.78077 13.1153 3.84577C13.1291 3.91077 13.128 3.97807 13.1119 4.04255L11.7994 9.29255C11.7758 9.38724 11.7212 9.47131 11.6443 9.5314C11.5674 9.59149 11.4726 9.62415 11.375 9.62418H3.5C3.40241 9.62415 3.30763 9.59149 3.23074 9.5314C3.15384 9.47131 3.09924 9.38724 3.07563 9.29255L1.40875 2.62418H0.4375C0.321468 2.62418 0.210188 2.57808 0.128141 2.49604C0.0460936 2.41399 0 2.30271 0 2.18668ZM2.7475 4.37418L3.84125 8.74918H11.0337L12.1275 4.37418H2.7475ZM4.375 11.3742C4.14294 11.3742 3.92038 11.4664 3.75628 11.6305C3.59219 11.7946 3.5 12.0171 3.5 12.2492C3.5 12.4812 3.59219 12.7038 3.75628 12.8679C3.92038 13.032 4.14294 13.1242 4.375 13.1242C4.60706 13.1242 4.82962 13.032 4.99372 12.8679C5.15781 12.7038 5.25 12.4812 5.25 12.2492C5.25 12.0171 5.15781 11.7946 4.99372 11.6305C4.82962 11.4664 4.60706 11.3742 4.375 11.3742ZM2.625 12.2492C2.625 11.785 2.80937 11.3399 3.13756 11.0117C3.46575 10.6836 3.91087 10.4992 4.375 10.4992C4.83913 10.4992 5.28425 10.6836 5.61244 11.0117C5.94063 11.3399 6.125 11.785 6.125 12.2492C6.125 12.7133 5.94063 13.1584 5.61244 13.4866C5.28425 13.8148 4.83913 13.9992 4.375 13.9992C3.91087 13.9992 3.46575 13.8148 3.13756 13.4866C2.80937 13.1584 2.625 12.7133 2.625 12.2492ZM10.5 11.3742C10.2679 11.3742 10.0454 11.4664 9.88128 11.6305C9.71719 11.7946 9.625 12.0171 9.625 12.2492C9.625 12.4812 9.71719 12.7038 9.88128 12.8679C10.0454 13.032 10.2679 13.1242 10.5 13.1242C10.7321 13.1242 10.9546 13.032 11.1187 12.8679C11.2828 12.7038 11.375 12.4812 11.375 12.2492C11.375 12.0171 11.2828 11.7946 11.1187 11.6305C10.9546 11.4664 10.7321 11.3742 10.5 11.3742ZM8.75 12.2492C8.75 11.785 8.93437 11.3399 9.26256 11.0117C9.59075 10.6836 10.0359 10.4992 10.5 10.4992C10.9641 10.4992 11.4092 10.6836 11.7374 11.0117C12.0656 11.3399 12.25 11.785 12.25 12.2492C12.25 12.7133 12.0656 13.1584 11.7374 13.4866C11.4092 13.8148 10.9641 13.9992 10.5 13.9992C10.0359 13.9992 9.59075 13.8148 9.26256 13.4866C8.93437 13.1584 8.75 12.7133 8.75 12.2492Z" fill="#9A55FF"/>
</g>
<defs>
<clipPath id="clip0_1540_10407">
<rect width="14" height="14" fill="white"/>
</clipPath>
</defs>
</svg>
