<svg width="42" height="42" viewBox="0 0 42 42" fill="none" xmlns="http://www.w3.org/2000/svg">
<rect width="42" height="42" rx="21" fill="#62912C"/>
<g clip-path="url(#clip0_63_41197)">
<rect width="16.5" height="16.5" transform="translate(12.75 12.75)" fill="white" fill-opacity="0.01"/>
<path d="M28.2207 27.1875C28.2207 27.1875 29.252 27.1875 29.252 26.1562C29.252 25.125 28.2207 22.0312 24.0957 22.0312C19.9707 22.0312 18.9395 25.125 18.9395 26.1562C18.9395 27.1875 19.9707 27.1875 19.9707 27.1875H28.2207ZM19.9934 26.1562C19.9858 26.1552 19.9782 26.1538 19.9707 26.1521C19.9717 25.8799 20.1429 25.0899 20.7545 24.3784C21.3237 23.7112 22.324 23.0625 24.0957 23.0625C25.8664 23.0625 26.8667 23.7122 27.437 24.3784C28.0485 25.0899 28.2186 25.8809 28.2207 26.1521L28.2125 26.1542C28.2077 26.155 28.2028 26.1557 28.198 26.1562H19.9934ZM24.0957 19.9688C24.6427 19.9688 25.1673 19.7515 25.5541 19.3647C25.9409 18.9779 26.1582 18.4533 26.1582 17.9062C26.1582 17.3592 25.9409 16.8346 25.5541 16.4478C25.1673 16.061 24.6427 15.8438 24.0957 15.8438C23.5487 15.8438 23.0241 16.061 22.6373 16.4478C22.2505 16.8346 22.0332 17.3592 22.0332 17.9062C22.0332 18.4533 22.2505 18.9779 22.6373 19.3647C23.0241 19.7515 23.5487 19.9688 24.0957 19.9688ZM27.1895 17.9062C27.1895 18.3125 27.1094 18.7148 26.954 19.0902C26.7985 19.4655 26.5706 19.8066 26.2833 20.0939C25.996 20.3811 25.655 20.609 25.2796 20.7645C24.9043 20.92 24.502 21 24.0957 21C23.6894 21 23.2871 20.92 22.9118 20.7645C22.5364 20.609 22.1954 20.3811 21.9081 20.0939C21.6208 19.8066 21.3929 19.4655 21.2375 19.0902C21.082 18.7148 21.002 18.3125 21.002 17.9062C21.002 17.0857 21.3279 16.2988 21.9081 15.7186C22.4883 15.1384 23.2752 14.8125 24.0957 14.8125C24.9162 14.8125 25.7031 15.1384 26.2833 15.7186C26.8635 16.2988 27.1895 17.0857 27.1895 17.9062ZM19.9047 22.32C19.4922 22.1901 19.067 22.1047 18.6363 22.0653C18.3943 22.0423 18.1513 22.0309 17.9082 22.0312C13.7832 22.0312 12.752 25.125 12.752 26.1562C12.752 26.8441 13.0954 27.1875 13.7832 27.1875H18.131C17.9781 26.8656 17.9018 26.5126 17.9082 26.1562C17.9082 25.1147 18.297 24.0504 19.0323 23.1615C19.2829 22.8583 19.5747 22.5747 19.9047 22.32ZM17.8257 23.0625C17.2154 23.9796 16.8857 25.0547 16.877 26.1562H13.7832C13.7832 25.8881 13.9523 25.0941 14.567 24.3784C15.129 23.7225 16.1056 23.0831 17.8257 23.0635V23.0625ZM14.2988 18.4219C14.2988 17.6014 14.6248 16.8145 15.205 16.2343C15.7852 15.6541 16.5721 15.3281 17.3926 15.3281C18.2131 15.3281 19 15.6541 19.5802 16.2343C20.1604 16.8145 20.4863 17.6014 20.4863 18.4219C20.4863 19.2424 20.1604 20.0293 19.5802 20.6095C19 21.1897 18.2131 21.5156 17.3926 21.5156C16.5721 21.5156 15.7852 21.1897 15.205 20.6095C14.6248 20.0293 14.2988 19.2424 14.2988 18.4219ZM17.3926 16.3594C16.8456 16.3594 16.321 16.5767 15.9342 16.9635C15.5474 17.3503 15.3301 17.8749 15.3301 18.4219C15.3301 18.9689 15.5474 19.4935 15.9342 19.8803C16.321 20.2671 16.8456 20.4844 17.3926 20.4844C17.9396 20.4844 18.4642 20.2671 18.851 19.8803C19.2378 19.4935 19.4551 18.9689 19.4551 18.4219C19.4551 17.8749 19.2378 17.3503 18.851 16.9635C18.4642 16.5767 17.9396 16.3594 17.3926 16.3594Z" fill="white"/>
</g>
<defs>
<clipPath id="clip0_63_41197">
<rect width="16.5" height="16.5" fill="white" transform="translate(12.75 12.75)"/>
</clipPath>
</defs>
</svg>
