<svg width="42" height="42" viewBox="0 0 42 42" fill="none" xmlns="http://www.w3.org/2000/svg">
<rect width="42" height="42" rx="21" fill="white"/>
<g clip-path="url(#clip0_63_41171)">
<rect width="16.5" height="16.5" transform="translate(12.75 12.75)" fill="white" fill-opacity="0.01"/>
<path d="M28.2217 27.1875C28.2217 27.1875 29.2529 27.1875 29.2529 26.1562C29.2529 25.125 28.2217 22.0312 24.0967 22.0312C19.9717 22.0312 18.9404 25.125 18.9404 26.1562C18.9404 27.1875 19.9717 27.1875 19.9717 27.1875H28.2217ZM19.9944 26.1562C19.9867 26.1552 19.9792 26.1538 19.9717 26.1521C19.9727 25.8799 20.1439 25.0899 20.7554 24.3784C21.3247 23.7112 22.325 23.0625 24.0967 23.0625C25.8673 23.0625 26.8676 23.7122 27.4379 24.3784C28.0495 25.0899 28.2196 25.8809 28.2217 26.1521L28.2134 26.1542C28.2086 26.155 28.2038 26.1557 28.199 26.1562H19.9944V26.1562ZM24.0967 19.9688C24.6437 19.9688 25.1683 19.7515 25.5551 19.3647C25.9419 18.9779 26.1592 18.4533 26.1592 17.9062C26.1592 17.3592 25.9419 16.8346 25.5551 16.4478C25.1683 16.061 24.6437 15.8438 24.0967 15.8438C23.5497 15.8438 23.0251 16.061 22.6383 16.4478C22.2515 16.8346 22.0342 17.3592 22.0342 17.9062C22.0342 18.4533 22.2515 18.9779 22.6383 19.3647C23.0251 19.7515 23.5497 19.9688 24.0967 19.9688ZM27.1904 17.9062C27.1904 18.3125 27.1104 18.7148 26.9549 19.0902C26.7995 19.4655 26.5716 19.8066 26.2843 20.0939C25.997 20.3811 25.656 20.609 25.2806 20.7645C24.9053 20.92 24.503 21 24.0967 21C23.6904 21 23.2881 20.92 22.9128 20.7645C22.5374 20.609 22.1963 20.3811 21.9091 20.0939C21.6218 19.8066 21.3939 19.4655 21.2384 19.0902C21.083 18.7148 21.0029 18.3125 21.0029 17.9062C21.0029 17.0857 21.3289 16.2988 21.9091 15.7186C22.4893 15.1384 23.2762 14.8125 24.0967 14.8125C24.9172 14.8125 25.7041 15.1384 26.2843 15.7186C26.8645 16.2988 27.1904 17.0857 27.1904 17.9062V17.9062ZM19.9057 22.32C19.4932 22.1901 19.0679 22.1047 18.6372 22.0653C18.3952 22.0423 18.1523 22.0309 17.9092 22.0312C13.7842 22.0313 12.7529 25.125 12.7529 26.1562C12.7529 26.8441 13.0963 27.1875 13.7842 27.1875H18.1319C17.9791 26.8656 17.9028 26.5126 17.9092 26.1562C17.9092 25.1147 18.298 24.0504 19.0332 23.1615C19.2838 22.8583 19.5757 22.5747 19.9057 22.32ZM17.8267 23.0625C17.2163 23.9796 16.8866 25.0547 16.8779 26.1562H13.7842C13.7842 25.8881 13.9533 25.0941 14.5679 24.3784C15.13 23.7225 16.1066 23.0831 17.8267 23.0635V23.0625ZM14.2998 18.4219C14.2998 17.6014 14.6258 16.8145 15.2059 16.2343C15.7861 15.6541 16.573 15.3281 17.3936 15.3281C18.2141 15.3281 19.001 15.6541 19.5812 16.2343C20.1614 16.8145 20.4873 17.6014 20.4873 18.4219C20.4873 19.2424 20.1614 20.0293 19.5812 20.6095C19.001 21.1897 18.2141 21.5156 17.3936 21.5156C16.573 21.5156 15.7861 21.1897 15.2059 20.6095C14.6258 20.0293 14.2998 19.2424 14.2998 18.4219V18.4219ZM17.3936 16.3594C16.8465 16.3594 16.3219 16.5767 15.9351 16.9635C15.5484 17.3503 15.3311 17.8749 15.3311 18.4219C15.3311 18.9689 15.5484 19.4935 15.9351 19.8803C16.3219 20.2671 16.8465 20.4844 17.3936 20.4844C17.9406 20.4844 18.4652 20.2671 18.852 19.8803C19.2388 19.4935 19.4561 18.9689 19.4561 18.4219C19.4561 17.8749 19.2388 17.3503 18.852 16.9635C18.4652 16.5767 17.9406 16.3594 17.3936 16.3594Z" fill="#9A55FF"/>
</g>
<defs>
<clipPath id="clip0_63_41171">
<rect width="16.5" height="16.5" fill="white" transform="translate(12.75 12.75)"/>
</clipPath>
</defs>
</svg>
