<svg width="17" height="23" viewBox="0 0 17 23" fill="none" xmlns="http://www.w3.org/2000/svg">
<path d="M2.79516 0.860352C2.07973 0.860352 1.39361 1.14455 0.887736 1.65043C0.381856 2.15631 0.0976563 2.84243 0.0976562 3.55785V19.7429C0.0976563 20.4583 0.381856 21.1444 0.887736 21.6503C1.39361 22.1562 2.07973 22.4404 2.79516 22.4404H13.5852C14.3006 22.4404 14.9867 22.1562 15.4926 21.6503C15.9985 21.1444 16.2827 20.4583 16.2827 19.7429V3.55785C16.2827 2.84243 15.9985 2.15631 15.4926 1.65043C14.9867 1.14455 14.3006 0.860352 13.5852 0.860352H2.79516ZM2.79516 2.2091H13.5852C13.9429 2.2091 14.2859 2.3512 14.5389 2.60414C14.7918 2.85708 14.9339 3.20014 14.9339 3.55785V19.7429C14.9339 20.1006 14.7918 20.4436 14.5389 20.6966C14.2859 20.9495 13.9429 21.0916 13.5852 21.0916H2.79516C2.43745 21.0916 2.09439 20.9495 1.84145 20.6966C1.58851 20.4436 1.44641 20.1006 1.44641 19.7429V3.55785C1.44641 3.20014 1.58851 2.85708 1.84145 2.60414C2.09439 2.3512 2.43745 2.2091 2.79516 2.2091Z" fill="#212529"/>
<path d="M3.60845 17.1627C3.34557 17.0576 3.13377 16.8545 3.0177 16.5962C2.75469 16.0729 2.84236 15.5496 3.1256 15.1099C3.39265 14.6958 3.83504 14.3438 4.33543 14.0484C4.96926 13.6889 5.63925 13.3974 6.33428 13.1785C6.87402 12.2082 7.35242 11.205 7.76665 10.1748C7.51899 9.61208 7.32481 9.0273 7.18669 8.42819C7.07069 7.88869 7.02619 7.35458 7.12464 6.89601C7.2258 6.41855 7.4942 5.98965 8.00133 5.78599C8.26029 5.68213 8.54083 5.62414 8.81328 5.68213C8.95033 5.71131 9.07916 5.77062 9.19044 5.85577C9.30172 5.94092 9.39265 6.04977 9.45663 6.17443C9.57532 6.39562 9.61848 6.65458 9.62792 6.90005C9.63736 7.15227 9.61174 7.43281 9.56453 7.72819C9.45124 8.41605 9.20037 9.25767 8.86318 10.1478C9.23529 10.9436 9.67764 11.7046 10.185 12.4218C10.7853 12.3744 11.3891 12.3971 11.9842 12.4893C12.4751 12.5769 12.9742 12.7523 13.279 13.1164C13.4408 13.3107 13.5393 13.548 13.5487 13.8151C13.5582 14.0741 13.4853 14.3303 13.3626 14.5744C13.2563 14.8007 13.0915 14.9944 12.8852 15.1355C12.6812 15.2685 12.4405 15.3337 12.1973 15.3216C11.7509 15.3028 11.3152 15.0573 10.9389 14.7592C10.4814 14.3809 10.0691 13.9509 9.7102 13.4779C8.7981 13.5814 7.89683 13.7646 7.01674 14.0255C6.61326 14.7403 6.15274 15.4214 5.63967 16.0621C5.24853 16.5342 4.81963 16.9455 4.39073 17.1236C4.1443 17.2351 3.86478 17.249 3.60845 17.1627ZM5.46838 14.5987C5.24449 14.7012 5.03678 14.8091 4.8493 14.9197C4.40691 15.1814 4.11963 15.4363 3.97666 15.6575C3.84988 15.8531 3.84718 15.9947 3.92271 16.1444C3.9362 16.1741 3.94969 16.1929 3.95778 16.2037C3.97387 16.1994 3.98964 16.194 4.00498 16.1875C4.18976 16.112 4.48379 15.8706 4.86144 15.4161C5.07622 15.1531 5.27875 14.8804 5.46838 14.5987ZM7.68033 12.8049C8.13069 12.6997 8.58515 12.6128 9.04257 12.5446C8.79687 12.1688 8.56738 11.7827 8.3547 11.3873C8.14319 11.8656 7.91831 12.3379 7.68033 12.8035V12.8049ZM10.9794 13.4118C11.1817 13.6303 11.3786 13.8164 11.5661 13.9648C11.8898 14.2211 12.115 14.306 12.2378 14.3101C12.2706 14.3144 12.304 14.3072 12.3322 14.2899C12.3883 14.2455 12.432 14.1875 12.4589 14.1213C12.5069 14.0391 12.5342 13.9465 12.5385 13.8515C12.5377 13.8198 12.5253 13.7896 12.5035 13.7665C12.4333 13.6829 12.2337 13.5615 11.8048 13.4847C11.532 13.4391 11.256 13.4151 10.9794 13.4132V13.4118ZM8.29536 8.6831C8.40887 8.31695 8.49897 7.94394 8.56511 7.56634C8.60692 7.31277 8.62311 7.10372 8.61636 6.93917C8.61673 6.84838 8.60215 6.75816 8.5732 6.67212C8.50573 6.68047 8.43984 6.69864 8.37763 6.72607C8.26029 6.77327 8.16453 6.86903 8.11328 7.10776C8.05933 7.36672 8.07281 7.74033 8.17532 8.21643C8.20769 8.36615 8.24815 8.5226 8.29671 8.6831H8.29536Z" fill="#212529"/>
</svg>
